<svg xmlns="http://www.w3.org/2000/svg" viewBox="0 0 320 320" role="img" aria-labelledby="title desc">
  <title id="title">Hamburguesinha Kixiki</title>
  <desc id="desc">Mascote auxiliar do Kixiki: um hambúrguer simpático nas cores verde e amarelo segurando um presente.</desc>
  <defs>
    <linearGradient id="bun" x1="0" y1="0" x2="0" y2="1">
      <stop offset="0" stop-color="#ffc64d"/>
      <stop offset="1" stop-color="#e0b438"/>
    </linearGradient>
    <linearGradient id="leaf" x1="0" y1="0" x2="1" y2="1">
      <stop offset="0" stop-color="#34d399"/>
      <stop offset="1" stop-color="#0a7a43"/>
    </linearGradient>
    <filter id="shadow" x="-20%" y="-20%" width="140%" height="150%">
      <feDropShadow dx="0" dy="12" stdDeviation="10" flood-color="#001e10" flood-opacity=".24"/>
    </filter>
  </defs>

  <ellipse cx="156" cy="279" rx="102" ry="17" fill="#001e10" opacity=".16"/>

  <g fill="none" stroke="#012b17" stroke-width="9" stroke-linecap="round" stroke-linejoin="round">
    <path d="M91 235c-17 11-23 24-27 36"/>
    <path d="M201 235c15 11 21 23 25 36"/>
    <path d="M74 272l-18 2"/>
    <path d="M224 273l19 2"/>
    <path d="M80 151c-21 4-32 18-39 32"/>
    <path d="M218 151c16 2 25 10 32 21"/>
  </g>

  <g filter="url(#shadow)">
    <path d="M65 128c5-55 43-86 92-86s87 31 92 86c1 8-5 15-13 15H78c-8 0-14-7-13-15Z" fill="url(#bun)" stroke="#012b17" stroke-width="8"/>
    <g fill="#fff8e7" opacity=".88">
      <ellipse cx="108" cy="79" rx="8" ry="3" transform="rotate(-24 108 79)"/>
      <ellipse cx="146" cy="64" rx="8" ry="3" transform="rotate(9 146 64)"/>
      <ellipse cx="187" cy="76" rx="8" ry="3" transform="rotate(25 187 76)"/>
      <ellipse cx="214" cy="103" rx="7" ry="3" transform="rotate(-13 214 103)"/>
      <ellipse cx="83" cy="108" rx="7" ry="3" transform="rotate(18 83 108)"/>
    </g>

    <path d="M68 145c17-13 32 10 49-2 18-13 33 11 51-1 19-13 32 10 49-1 12-8 22-5 31 2l-8 31H73Z" fill="url(#leaf)" stroke="#012b17" stroke-width="8"/>
    <path d="m79 169 46 2 23 22 25-22 63-2-10 36H88Z" fill="#f3e5a6" stroke="#012b17" stroke-width="8"/>
    <path d="M80 200h154c8 0 14 7 12 15l-3 11c-3 11-13 18-24 18H95c-11 0-21-7-24-18l-3-11c-2-8 4-15 12-15Z" fill="#7b3f21" stroke="#012b17" stroke-width="8"/>
    <path d="M75 227h164v12c0 22-18 39-39 39h-86c-22 0-39-17-39-39Z" fill="url(#bun)" stroke="#012b17" stroke-width="8"/>
  </g>

  <g fill="#012b17">
    <circle cx="126" cy="110" r="7"/>
    <circle cx="187" cy="110" r="7"/>
  </g>
  <path d="M137 126c12 12 27 12 39 0" fill="none" stroke="#012b17" stroke-width="7" stroke-linecap="round"/>
  <circle cx="107" cy="125" r="8" fill="#ff8d7e" opacity=".72"/>
  <circle cx="207" cy="125" r="8" fill="#ff8d7e" opacity=".72"/>

  <g transform="translate(228 157) rotate(6)">
    <rect x="0" y="14" width="57" height="49" rx="8" fill="#f8b62f" stroke="#012b17" stroke-width="7"/>
    <path d="M28 15v48M2 31h54" fill="none" stroke="#012b17" stroke-width="6"/>
    <path d="M28 15C16 12 12 4 18 1c7-3 12 6 10 14Zm1 0c11-4 15-12 9-15-7-3-11 7-9 15Z" fill="#34d399" stroke="#012b17" stroke-width="5" stroke-linejoin="round"/>
  </g>

  <path d="M42 183c-4 8-2 15 7 17" fill="none" stroke="#f8b62f" stroke-width="7" stroke-linecap="round"/>
  <path d="m278 104 4 10 10 4-10 4-4 10-4-10-10-4 10-4Z" fill="#f8b62f" stroke="#012b17" stroke-width="4" stroke-linejoin="round"/>
</svg>
